<?xml version="1.0" encoding="UTF-8" standalone="no"?>
<!-- Created with Inkscape (http://www.inkscape.org/) -->

<svg
   xmlns:dc="http://purl.org/dc/elements/1.1/"
   xmlns:cc="http://creativecommons.org/ns#"
   xmlns:rdf="http://www.w3.org/1999/02/22-rdf-syntax-ns#"
   xmlns:svg="http://www.w3.org/2000/svg"
   xmlns="http://www.w3.org/2000/svg"
   xmlns:sodipodi="http://sodipodi.sourceforge.net/DTD/sodipodi-0.dtd"
   xmlns:inkscape="http://www.inkscape.org/namespaces/inkscape"
   width="200cm"
   height="40cm"
   viewBox="0 0 200 40.000001"
   version="1.1"
   id="svg3719"
   inkscape:version="0.92.4 (5da689c313, 2019-01-14)"
   sodipodi:docname="testirata.svg">
  <defs
     id="defs3713" />
  <sodipodi:namedview
     id="base"
     pagecolor="#ffffff"
     bordercolor="#666666"
     borderopacity="1.0"
     inkscape:pageopacity="0.0"
     inkscape:pageshadow="2"
     inkscape:zoom="0.35"
     inkscape:cx="1254.6644"
     inkscape:cy="792.75657"
     inkscape:document-units="cm"
     inkscape:current-layer="layer1"
     showgrid="true"
     units="cm"
     width="7cm"
     scale-x="1"
     inkscape:window-width="1920"
     inkscape:window-height="1001"
     inkscape:window-x="-9"
     inkscape:window-y="-9"
     inkscape:window-maximized="1"
     gridtolerance="10">
    <inkscape:grid
       type="xygrid"
       id="grid3727"
       units="cm"
       spacingx="5.0000001"
       spacingy="5.0000001" />
  </sodipodi:namedview>
  <metadata
     id="metadata3716">
    <rdf:RDF>
      <cc:Work
         rdf:about="">
        <dc:format>image/svg+xml</dc:format>
        <dc:type
           rdf:resource="http://purl.org/dc/dcmitype/StillImage" />
        <dc:title></dc:title>
      </cc:Work>
    </rdf:RDF>
  </metadata>
  <g
     inkscape:label="Layer 1"
     inkscape:groupmode="layer"
     id="layer1"
     transform="translate(0,-221)">
    <path
       style="fill:none;stroke:#000000;stroke-width:0.02645833px;stroke-linecap:butt;stroke-linejoin:miter;stroke-opacity:1"
       d="m 0,261 c 152.39998,-9.99999 136.27632,-14.14474 157.86679,-9.14474 21.59047,4.99999 70,1.83571 70,1.83571 l 99.99999,-16.83571 c 0,0 0.50774,0.37798 10.50774,0.37798 10.00001,0 36.62549,12.52678 36.62549,12.52678 l 77.94234,8.99583 c 0,0 4.26609,0.38869 24.26607,-4.61131 20.00001,-5 24.36251,-16.60892 24.36251,-16.60892 l 6.29584,-5.68036 c 0,0 1.61132,-0.51786 14.43869,1.20952 12.82737,1.72738 45.56129,11.40357 45.56129,11.40357 l 85,-17.61309 c 0,0 -2.55894,-0.30238 27.44107,-0.30238 29.99999,0 69.89341,17.15952 69.89341,17.15952 l 29.33097,23.14285 21.46903,20 c 0,0 0.30239,0.74524 9.07143,5.74524 8.76905,5 37.79407,-5.74524 37.79407,-5.74524 l 79.99999,-49.99999 c 0,0 0.43214,-0.52917 10.43214,-0.52917 9.99998,0 46.70116,20.52916 46.70116,20.52916 h 0.45357 c 9.07143,0 29.17971,-19.99999 29.17971,-19.99999 0,0 -0.102,-0.85526 12.9801,-5.85526 13.0822,-5 38.1223,-4.14474 38.1223,-4.14474 l 32.131,21.99762 28.0345,12.14712 15.2785,15.85525 c 0,0 -0.1106,0.18334 3.8203,1.96548 3.931,1.78214 22.8667,8.03452 22.8667,8.03452 0,0 13.4452,0.15119 18.4452,0.15119 5,0 21.5548,-25.15119 21.5548,-25.15119 l 20,-24.99999 35,-15 40,15 c 0,0 1.6518,1.80357 4.7625,6.80357 3.1107,5 15.2375,25.90714 15.2375,25.90714 l 15,7.28928 101.6118,13.12143 18.3881,1.87857 c 0,0 6.5554,0.36667 16.5554,-7.55952 10,-7.92619 36.5179,-14.72976 36.5179,-14.72976 L 1540,266 l 37.5981,-5 H 1590"
       id="path3740"
       inkscape:connector-curvature="0"
       sodipodi:nodetypes="csccsccsccsccscccsccscsccccccccsccccsccccscccc" />
  </g>
</svg>
