<?xml version="1.0" encoding="UTF-8" standalone="no"?>
<!-- Created with Inkscape (http://www.inkscape.org/) -->

<svg
   xmlns:dc="http://purl.org/dc/elements/1.1/"
   xmlns:cc="http://creativecommons.org/ns#"
   xmlns:rdf="http://www.w3.org/1999/02/22-rdf-syntax-ns#"
   xmlns:svg="http://www.w3.org/2000/svg"
   xmlns="http://www.w3.org/2000/svg"
   xmlns:sodipodi="http://sodipodi.sourceforge.net/DTD/sodipodi-0.dtd"
   xmlns:inkscape="http://www.inkscape.org/namespaces/inkscape"
   width="200cm"
   height="40cm"
   viewBox="0 0 200 40.000001"
   version="1.1"
   id="svg3719"
   inkscape:version="0.92.4 (5da689c313, 2019-01-14)"
   sodipodi:docname="rata29.svg">
  <defs
     id="defs3713" />
  <sodipodi:namedview
     id="base"
     pagecolor="#ffffff"
     bordercolor="#666666"
     borderopacity="1.0"
     inkscape:pageopacity="0.0"
     inkscape:pageshadow="2"
     inkscape:zoom="0.35"
     inkscape:cx="5031.8908"
     inkscape:cy="-629.17196"
     inkscape:document-units="cm"
     inkscape:current-layer="layer1"
     showgrid="true"
     units="cm"
     width="7cm"
     scale-x="1"
     inkscape:window-width="1920"
     inkscape:window-height="1001"
     inkscape:window-x="-9"
     inkscape:window-y="-9"
     inkscape:window-maximized="1"
     gridtolerance="10">
    <inkscape:grid
       type="xygrid"
       id="grid3727"
       units="cm"
       spacingx="5.0000001"
       spacingy="5.0000001" />
  </sodipodi:namedview>
  <metadata
     id="metadata3716">
    <rdf:RDF>
      <cc:Work
         rdf:about="">
        <dc:format>image/svg+xml</dc:format>
        <dc:type
           rdf:resource="http://purl.org/dc/dcmitype/StillImage" />
        <dc:title></dc:title>
      </cc:Work>
    </rdf:RDF>
  </metadata>
  <g
     inkscape:label="Layer 1"
     inkscape:groupmode="layer"
     id="layer1"
     transform="translate(0,-221)">
    <path
       style="fill:none;stroke:#000000;stroke-width:0.02645833px;stroke-linecap:butt;stroke-linejoin:miter;stroke-opacity:1"
       d="m 0,260.99999 c 6.2749908,0.29302 12.724475,1.54716 18.823212,0.86935 l 2.116666,5.02708 -0.93988,19.10357 H 0"
       id="path34"
       inkscape:connector-curvature="0"
       sodipodi:nodetypes="ccccc" />
    <path
       style="fill:none;stroke:#000000;stroke-width:0.02645833px;stroke-linecap:butt;stroke-linejoin:miter;stroke-opacity:1"
       d="m 21.166664,264.0616 0.680357,-1.32292 0.566964,1.39852 -0.188988,7.8241"
       id="path36"
       inkscape:connector-curvature="0" />
    <path
       style="fill:none;stroke:#000000;stroke-width:0.02645833px;stroke-linecap:butt;stroke-linejoin:miter;stroke-opacity:1"
       d="M 24.470834,264.13719 25,263.07886 l 0.718155,1.05833 0.39375,8.35328"
       id="path38"
       inkscape:connector-curvature="0" />
    <path
       style="fill:none;stroke:#000000;stroke-width:0.02645833px;stroke-linecap:butt;stroke-linejoin:miter;stroke-opacity:1"
       d="m 28.688389,264.0238 c 6.354931,2.68731 11.927998,6.30966 18.974403,8.12649 3.743996,0.87163 7.517204,2.02953 10.772319,-1.88988 l 1.564883,0.0378 v 15.70178 H 28.386007"
       id="path40"
       inkscape:connector-curvature="0"
       sodipodi:nodetypes="cccccc" />
    <path
       style="fill:none;stroke:#000000;stroke-width:0.02645833px;stroke-linecap:butt;stroke-linejoin:miter;stroke-opacity:1"
       d="m 56.781555,263.27857 c 18.256246,0 18.256246,0 18.256246,0 L 75.000001,261 57.08393,261.15119"
       id="path42"
       inkscape:connector-curvature="0" />
    <path
       style="fill:none;stroke:#000000;stroke-width:0.02645833px;stroke-linecap:butt;stroke-linejoin:miter;stroke-opacity:1"
       d="m 66.826182,270.52499 18.173809,12.05744 c 4.961133,2.67445 8.092812,-1.31916 10.000011,-2.57023 4.32085,4.66705 -4.670693,14.8664 -6.402395,20.98779 l -23.597613,-0.84167"
       id="path44"
       inkscape:connector-curvature="0"
       sodipodi:nodetypes="ccccc" />
    <path
       style="fill:none;stroke:#000000;stroke-width:0.02645833px;stroke-linecap:butt;stroke-linejoin:miter;stroke-opacity:1"
       d="m 102.28928,278.68928 c 7.63512,-0.0756 7.63512,-0.0756 7.63512,-0.0756 L 110,276.95059 h -7.86191"
       id="path46"
       inkscape:connector-curvature="0" />
    <path
       style="fill:none;stroke:#000000;stroke-width:0.02645833px;stroke-linecap:butt;stroke-linejoin:miter;stroke-opacity:1"
       d="m 115.15119,279.4125 7.63512,-0.0756 0.0756,-1.66309 c -2.53025,0.8135 -5.19174,0.44581 -7.86191,0"
       id="path46-4"
       inkscape:connector-curvature="0"
       sodipodi:nodetypes="cccc" />
    <path
       style="fill:none;stroke:#000000;stroke-width:0.02645833px;stroke-linecap:butt;stroke-linejoin:miter;stroke-opacity:1"
       d="m 115.15119,287.73869 c 7.63512,-0.0756 7.63512,-0.0756 7.63512,-0.0756 L 122.86191,286 H 115"
       id="path46-5"
       inkscape:connector-curvature="0" />
    <path
       style="fill:none;stroke:#000000;stroke-width:0.02645833px;stroke-linecap:butt;stroke-linejoin:miter;stroke-opacity:1"
       d="m 130,286.82874 c 7.63512,-0.0756 7.63512,-0.0756 7.63512,-0.0756 l 0.0756,-1.66309 h -7.86191"
       id="path46-3"
       inkscape:connector-curvature="0" />
    <path
       style="fill:none;stroke:#000000;stroke-width:0.02645833px;stroke-linecap:butt;stroke-linejoin:miter;stroke-opacity:1"
       d="m 138.87678,281.92423 7.63512,-0.0756 0.0756,-1.66309 c -2.79043,0.76101 -5.20162,0.56408 -7.86191,0"
       id="path46-47"
       inkscape:connector-curvature="0"
       sodipodi:nodetypes="cccc" />
    <path
       style="fill:none;stroke:#000000;stroke-width:0.02645833px;stroke-linecap:butt;stroke-linejoin:miter;stroke-opacity:1"
       d="M 127.36488,281.0756 135,281 l 0.0756,-1.66309 c -2.62064,0.7795 -5.24127,0.31771 -7.86191,0"
       id="path46-8"
       inkscape:connector-curvature="0"
       sodipodi:nodetypes="cccc" />
    <path
       style="fill:none;stroke:#000000;stroke-width:0.02645833px;stroke-linecap:butt;stroke-linejoin:miter;stroke-opacity:1"
       d="m 140,289.83958 c 7.63512,-0.0756 7.63512,-0.0756 7.63512,-0.0756 l 0.0756,-1.66309 h -7.86191"
       id="path46-0"
       inkscape:connector-curvature="0" />
    <path
       style="fill:none;stroke:#000000;stroke-width:0.02645833px;stroke-linecap:butt;stroke-linejoin:miter;stroke-opacity:1"
       d="m 141.14641,297.4747 c 7.63512,-0.0756 7.63512,-0.0756 7.63512,-0.0756 l 0.0756,-1.66309 h -7.86191"
       id="path46-80"
       inkscape:connector-curvature="0" />
    <path
       style="fill:none;stroke:#000000;stroke-width:0.02645833px;stroke-linecap:butt;stroke-linejoin:miter;stroke-opacity:1"
       d="m 121.14641,293.09018 c 7.63512,-0.0756 7.63512,-0.0756 7.63512,-0.0756 l 0.0756,-1.66309 h -7.86191"
       id="path46-00"
       inkscape:connector-curvature="0" />
    <path
       style="fill:none;stroke:#000000;stroke-width:0.02645833px;stroke-linecap:butt;stroke-linejoin:miter;stroke-opacity:1"
       d="m 145.90891,271 c 7.63512,-0.0756 7.63512,-0.0756 7.63512,-0.0756 l 0.0756,-1.66309 h -7.86191"
       id="path46-96"
       inkscape:connector-curvature="0" />
    <path
       style="fill:none;stroke:#000000;stroke-width:0.02645833px;stroke-linecap:butt;stroke-linejoin:miter;stroke-opacity:1"
       d="m 130,296 c 7.63512,-0.0756 7.63512,-0.0756 7.63512,-0.0756 l 0.0756,-1.66309 h -7.86191"
       id="path46-18"
       inkscape:connector-curvature="0" />
    <path
       style="fill:none;stroke:#000000;stroke-width:0.02645833px;stroke-linecap:butt;stroke-linejoin:miter;stroke-opacity:1"
       d="m 152.39998,298.41963 c 13.70812,-0.79619 27.46707,1.2828 41.1238,-2.41964 l -2.19226,19.05059 -41.33153,-1.13393"
       id="path138"
       inkscape:connector-curvature="0"
       sodipodi:nodetypes="cccc" />
    <path
       style="fill:none;stroke:#000000;stroke-width:0.02645833px;stroke-linecap:butt;stroke-linejoin:miter;stroke-opacity:1"
       d="m 150,289.3482 c 14.02916,-1.11607 26.29718,-0.63531 42.08748,-3.34821 l 1.36071,3.34822 -43.4482,3.175"
       id="path140"
       inkscape:connector-curvature="0"
       sodipodi:nodetypes="cccc" />
    <path
       style="fill:none;stroke:#000000;stroke-width:0.02645833px;stroke-linecap:butt;stroke-linejoin:miter;stroke-opacity:1"
       d="m 149.69702,282.54464 c 31.68447,-4.66441 31.89167,-4.8653 33.3375,-5.66964 L 185,281 l -33.84761,2.75417"
       id="path142"
       inkscape:connector-curvature="0"
       sodipodi:nodetypes="cccc" />
    <path
       style="fill:none;stroke:#000000;stroke-width:0.02645833px;stroke-linecap:butt;stroke-linejoin:miter;stroke-opacity:1"
       d="m 199.03809,297.58809 c 15.60016,7.12802 32.18608,1.48443 48.32262,1.6631 l -0.84881,8.99583 -47.32262,-0.30238"
       id="path144"
       inkscape:connector-curvature="0"
       sodipodi:nodetypes="cccc" />
    <path
       style="fill:none;stroke:#000000;stroke-width:0.02645833px;stroke-linecap:butt;stroke-linejoin:miter;stroke-opacity:1"
       d="m 194.0688,281 c 14.76377,1.28334 29.09184,-1.01037 43.46725,-2.91547 l 3.7756,7.91547 -28.19285,1.91191"
       id="path146"
       inkscape:connector-curvature="0"
       sodipodi:nodetypes="cccc" />
    <path
       style="fill:none;stroke:#000000;stroke-width:0.02645833px;stroke-linecap:butt;stroke-linejoin:miter;stroke-opacity:1"
       d="m 105.15119,285.07708 c 7.63512,-0.0756 7.63512,-0.0756 7.63512,-0.0756 l 0.0756,-1.66309 H 105"
       id="path46-5-4"
       inkscape:connector-curvature="0" />
  </g>
</svg>
