<?xml version="1.0" encoding="UTF-8" standalone="no"?>
<!-- Created with Inkscape (http://www.inkscape.org/) -->

<svg
   xmlns:dc="http://purl.org/dc/elements/1.1/"
   xmlns:cc="http://creativecommons.org/ns#"
   xmlns:rdf="http://www.w3.org/1999/02/22-rdf-syntax-ns#"
   xmlns:svg="http://www.w3.org/2000/svg"
   xmlns="http://www.w3.org/2000/svg"
   xmlns:sodipodi="http://sodipodi.sourceforge.net/DTD/sodipodi-0.dtd"
   xmlns:inkscape="http://www.inkscape.org/namespaces/inkscape"
   width="200cm"
   height="40cm"
   viewBox="0 0 200 40.000001"
   version="1.1"
   id="svg3719"
   inkscape:version="0.92.4 (5da689c313, 2019-01-14)"
   sodipodi:docname="rata18.svg">
  <defs
     id="defs3713" />
  <sodipodi:namedview
     id="base"
     pagecolor="#ffffff"
     bordercolor="#666666"
     borderopacity="1.0"
     inkscape:pageopacity="0.0"
     inkscape:pageshadow="2"
     inkscape:zoom="0.35000001"
     inkscape:cx="5866.7996"
     inkscape:cy="-1139.033"
     inkscape:document-units="cm"
     inkscape:current-layer="layer1"
     showgrid="true"
     units="cm"
     width="7cm"
     scale-x="1"
     inkscape:window-width="1920"
     inkscape:window-height="1001"
     inkscape:window-x="-9"
     inkscape:window-y="-9"
     inkscape:window-maximized="1"
     gridtolerance="10">
    <inkscape:grid
       type="xygrid"
       id="grid3727"
       units="cm"
       spacingx="5.0000001"
       spacingy="5.0000001" />
  </sodipodi:namedview>
  <metadata
     id="metadata3716">
    <rdf:RDF>
      <cc:Work
         rdf:about="">
        <dc:format>image/svg+xml</dc:format>
        <dc:type
           rdf:resource="http://purl.org/dc/dcmitype/StillImage" />
        <dc:title></dc:title>
      </cc:Work>
    </rdf:RDF>
  </metadata>
  <g
     inkscape:label="Layer 1"
     inkscape:groupmode="layer"
     id="layer1"
     transform="translate(0,-221)">
    <path
       style="fill:none;stroke:#000000;stroke-width:0.02645833px;stroke-linecap:butt;stroke-linejoin:miter;stroke-opacity:1"
       d="m 0,260.99999 c 9.2031804,0.73196 15.157794,-1.44681 21.488467,1.17599 22.304871,11.92454 21.479513,27.19963 41.052593,38.82401 10.37732,5.36386 15.301359,-0.004 22.458931,-5 h 3.412754 l -3.412754,40 H 0"
       id="path101"
       inkscape:connector-curvature="0"
       sodipodi:nodetypes="ccccccc" />
    <path
       style="fill:none;stroke:#000000;stroke-width:0.02645833px;stroke-linecap:butt;stroke-linejoin:miter;stroke-opacity:1"
       d="m 109.13064,296 c 16.06967,12.52291 33.33107,18.0547 47.69165,10.88571 l 0.90715,18.9744 -48.59879,-0.76784"
       id="path107"
       inkscape:connector-curvature="0"
       sodipodi:nodetypes="cccc" />
    <path
       style="fill:none;stroke:#000000;stroke-width:0.02645833px;stroke-linecap:butt;stroke-linejoin:miter;stroke-opacity:1"
       d="m 89.999991,295.99999 0.631092,-0.46878 0.320723,0.46878 1.175985,-0.33514 0.374179,0.33514 0.42763,-0.44205 1.336347,0.72163 0.374179,-0.61472 0.359865,0.33514 1.029936,-0.41532 0.587994,0.6949 1.069078,-0.85526 0.454358,0.57568 1.443254,-1.11022 0.415377,1.11022 1.214962,-1.00332 0.56127,1.00332 0.40091,-1.13695 0.74835,0.53454 0.58799,0.60241 0.74836,-0.57568 0.73816,0.57568 0.65164,-0.28169 0.64145,-0.53454 0.37417,0.81623 h 1.12253 l 0.48109,0.49339 -0.0802,9.50661 H 89.999991"
       id="path109"
       inkscape:connector-curvature="0" />
    <path
       style="fill:none;stroke:#000000;stroke-width:0.02645833px;stroke-linecap:butt;stroke-linejoin:miter;stroke-opacity:1"
       d="m 90.000007,286.63698 0.417277,0.81417 0.775081,-0.76071 0.561266,0.76071 0.454358,-0.46672 0.347451,0.46672 0.721627,-0.62708 0.507812,0.62708 0.507812,-0.76071 0.707316,0.76071 0.655759,-0.41326 0.160362,0.41326 0.881988,-0.52017 0.561266,0.52017 0.561266,-0.52017 0.855263,0.52017 0.668173,-0.62708 0.655916,0.62708 0.62697,-0.46672 1.12253,0.74836 0.45436,-0.90872 0.82854,0.62708 0.4009,-0.49344 0.90872,0.49344 0.24054,-0.41326 0.41744,0.41326 0.75855,-0.41326 0.8018,0.77508 0.45436,-0.36182 -0.18709,-10 c -5.78839,-0.0735 -11.802157,-0.64583 -17.265599,0"
       id="path113"
       inkscape:connector-curvature="0"
       sodipodi:nodetypes="ccccccccccccccccccccccccccccccc" />
    <path
       style="fill:none;stroke:#000000;stroke-width:0.02645833px;stroke-linecap:butt;stroke-linejoin:miter;stroke-opacity:1"
       d="m 160.02143,309.53213 c 1.32291,-2.70059 1.32291,-2.70059 1.32291,-2.70059 l 1.51191,0.92411 0.79375,-0.92411 0.88274,1.45327 2.70803,-1.45327 0.94494,1.83125 1.81429,-1.83125 1.5497,1.83125 1.47411,-1.83125 c 0,0 1.81428,0.88631 1.88988,1.0753 0.0756,0.18898 2.11666,-1.0753 2.11666,-1.0753 l 0.94494,1.60446 1.55745,-1.60446 2.26011,2.20922 1.6253,-2.20922 1.11459,1.79345 1.19106,-1.79345 0.41578,0.69732 0.71815,-0.69732 0.30238,20 h -27.62737"
       id="path115"
       inkscape:connector-curvature="0" />
    <path
       style="fill:none;stroke:#000000;stroke-width:0.02645833px;stroke-linecap:butt;stroke-linejoin:miter;stroke-opacity:1"
       d="m 190,307.13392 c 43.1357,3.75893 43.1357,3.75893 43.1357,3.75893 l 0.0756,18.52083 -43.21129,-0.75595"
       id="path117"
       inkscape:connector-curvature="0" />
  </g>
</svg>
